<?xml version="1.0" encoding="UTF-8" standalone="no"?>
<svg
   xmlns:dc="http://purl.org/dc/elements/1.1/"
   xmlns:cc="http://creativecommons.org/ns#"
   xmlns:rdf="http://www.w3.org/1999/02/22-rdf-syntax-ns#"
   xmlns:svg="http://www.w3.org/2000/svg"
   xmlns="http://www.w3.org/2000/svg"
   viewBox="0 0 1333.3333 1333.3333"
   height="1333.3333"
   width="1333.3333"
   xml:space="preserve"
   id="svg2"
   version="1.1"><metadata
     id="metadata8"><rdf:RDF><cc:Work
         rdf:about=""><dc:format>image/svg+xml</dc:format><dc:type
           rdf:resource="http://purl.org/dc/dcmitype/StillImage" /></cc:Work></rdf:RDF></metadata><defs
     id="defs6" /><g
     transform="matrix(1.3333333,0,0,-1.3333333,0,1333.3333)"
     id="g10"><!-- <g
       transform="translate(62.8569,999.9999)"
       id="g12"><path
         id="path14"
         style="fill:#000000;fill-opacity:1;fill-rule:nonzero;stroke:none"
         d="m 0,0 -62.857,-62.857 v -250 L 0,-375.714 H 250 L -62.857,-687.143 V -937.142 L 0,-1000 h 874.286 l 62.857,62.858 v 249.999 l -62.857,61.429 h -250 l 312.857,312.857 v 250 L 874.286,0 Z" /></g> <g
       transform="translate(687.1428,999.9999)"
       id="g16"><path
         id="path18"
         style="fill:#000000;fill-opacity:1;fill-rule:nonzero;stroke:none"
         d="m 0,0 -62.857,-62.857 v -124.286 l -124.285,-125.714 -125.715,125.714 V -62.857 L -374.286,0 h -250 l -62.857,-62.857 V -437.143 L -374.286,-750 v -187.142 l 61.429,-62.858 h 250 L 0,-937.142 V -750 l 312.857,312.857 V -62.857 L 250,0 Z" /></g><g
       transform="translate(687.1428,999.9999)"
       id="g20"><path
         id="path22"
         style="fill:#000000;fill-opacity:1;fill-rule:nonzero;stroke:none"
         d="M 0,0 -187.142,-187.143 -374.286,0 h -250 l -62.857,-62.857 v -250 l 187.144,-187.142 -187.144,-187.144 v -249.999 l 62.857,-62.858 h 250 L -187.142,-812.857 0,-1000 h 250 l 62.857,62.858 v 249.999 l -187.142,187.144 187.142,187.142 v 250 L 250,0 Z" /></g> <g
       transform="translate(687.1428,999.9999)"
       id="g24"><path
         id="path26"
         style="fill:#000000;fill-opacity:1;fill-rule:nonzero;stroke:none"
         d="m 0,0 -62.857,-62.857 v -250 l -124.285,125.714 -125.715,-125.714 v 250 L -374.286,0 h -250 l -62.857,-62.857 V -874.286 L -562.857,-1000 h 250 L -187.142,-875.714 -62.857,-1000 h 250 l 125.714,124.286 V -62.857 L 250,0 Z" /></g><g
       transform="translate(687.1428,999.9999)"
       id="g28"><path
         id="path30"
         style="fill:#000000;fill-opacity:1;fill-rule:nonzero;stroke:none"
         d="m 0,0 -62.857,-62.857 v -374.286 l -125.715,-125.714 -124.285,125.714 V -62.857 L -374.286,0 h -250 l -62.857,-62.857 V -624.286 L -312.857,-1000 h 250 l 375.714,374.286 V -62.857 L 250,0 Z" /></g><g
       transform="translate(687.1428,999.9999)"
       id="g32"><path
         id="path34"
         style="fill:#000000;fill-opacity:1;fill-rule:nonzero;stroke:none"
         d="m 0,0 -62.857,-62.857 v -562.857 h -250 V -62.857 L -374.286,0 h -250 l -62.857,-62.857 v -750 L -499.999,-1000 h 625.714 l 187.142,187.143 v 750 L 250,0 Z" /></g>--><g
       transform="translate(62.8569,999.9999)"
       id="g36"><path
         id="path38"
         style="fill:#002977;fill-opacity:1;fill-rule:nonzero;stroke:none"
         d="m 0,0 -62.857,-62.857 v -250 L 0,-375.714 H 250 V -937.142 L 311.429,-1000 h 250 l 62.857,62.858 -1.429,561.428 h 251.429 l 62.857,62.857 v 250 L 874.286,0 Z" /></g><!--<g
       transform="translate(187.1433,999.9999)"
       id="g40"><path
         id="path42"
         style="fill:#000000;fill-opacity:1;fill-rule:nonzero;stroke:none"
         d="m 0,0 -187.143,-187.143 v -250 L 0,-625.714 h -124.286 l -62.857,-61.429 v -249.999 l 62.857,-62.858 h 750 l 187.143,187.143 v 250 L 625.714,-375.714 H 750 l 62.857,62.857 v 250 L 750,0 Z" /></g><g
       transform="translate(62.8569,999.9999)"
       id="g44"><path
         id="path46"
         style="fill:#000000;fill-opacity:1;fill-rule:nonzero;stroke:none"
         d="M 0,0 -62.857,-62.857 V -937.142 L 0,-1000 h 250 l 61.429,62.858 v 249.999 L 624.286,-1000 h 250 l 62.857,62.858 v 249.999 l -62.857,61.429 62.857,62.857 v 375.714 L 750.001,0 Z m 311.429,-375.714 h 250 v -124.285 h -250 z" /></g><g
       transform="translate(187.1433,999.9999)"
       id="g48"><path
         id="path50"
         style="fill:#000000;fill-opacity:1;fill-rule:nonzero;stroke:none"
         d="M 0,0 -187.143,-187.143 V -812.857 L 0,-1000 H 687.143 L 312.857,-625.714 H 187.142 v 250 h 250.001 v -187.143 l 375.714,-374.285 v 749.999 L 625.714,0 Z" /></g><g
       transform="translate(62.8569,999.9999)"
       id="g52"><path
         id="path54"
         style="fill:#000000;fill-opacity:1;fill-rule:nonzero;stroke:none"
         d="M 0,0 -62.857,-62.857 V -937.142 L 0,-1000 h 250 l 61.429,62.858 v 61.428 h 438.572 l 187.142,188.571 v 500 L 750.001,0 Z m 311.429,-375.714 h 250 v -124.285 h -250 z" /></g><g
       transform="translate(187.1433,999.9999)"
       id="g56"><path
         id="path58"
         style="fill:#000000;fill-opacity:1;fill-rule:nonzero;stroke:none"
         d="M 0,0 -187.143,-187.143 V -812.857 L 0,-1000 h 625.714 l 187.143,187.143 v 625.714 L 625.714,0 Z m 187.142,-375.714 h 250 v -250 h -250 z" /></g><g
       transform="translate(687.1428,999.9999)"
       id="g60"><path
         id="path62"
         style="fill:#000000;fill-opacity:1;fill-rule:nonzero;stroke:none"
         d="m 0,0 -62.857,-62.857 v -250 L -374.286,0 h -250 l -62.857,-62.857 v -874.285 l 62.857,-62.858 h 250 l 61.429,62.858 v 249.999 L 0,-1000 h 250 l 62.857,62.858 V -62.857 L 250,0 Z" /></g><g
       transform="translate(687.1428,999.9999)"
       id="g64"><path
         id="path66"
         style="fill:#000000;fill-opacity:1;fill-rule:nonzero;stroke:none"
         d="M 0,0 -187.142,-187.143 -374.286,0 h -250 l -62.857,-62.857 v -874.285 l 62.857,-62.858 h 250 l 61.429,62.858 v 249.999 l 125.715,-125.714 124.285,125.714 V -937.142 L 0,-1000 h 250 l 62.857,62.858 V -62.857 L 250,0 Z" /></g><g
       transform="translate(64.2852,999.9999)"
       id="g68"><path
         id="path70"
         style="fill:#000000;fill-opacity:1;fill-rule:nonzero;stroke:none"
         d="M 0,0 -64.285,-62.857 V -937.142 L -1.428,-1000 h 874.286 l 62.857,62.858 v 311.428 l -62.857,62.857 H 560.001 v -62.857 H 310 V -62.857 L 248.572,0 Z" /></g><g
       transform="translate(687.1428,999.9999)"
       id="g72"><path
         id="path74"
         style="fill:#000000;fill-opacity:1;fill-rule:nonzero;stroke:none"
         d="m 0,0 -312.857,-312.857 v 250 L -374.286,0 h -250 l -62.857,-62.857 v -874.285 l 62.857,-62.858 h 250 l 61.429,62.858 v 249.999 L 0,-1000 h 250 l 62.857,62.858 v 249.999 l -187.142,187.144 187.142,187.142 v 250 L 250,0 Z" /></g><g
       transform="translate(62.8569,999.9999)"
       id="g76"><path
         id="path78"
         style="fill:#000000;fill-opacity:1;fill-rule:nonzero;stroke:none"
         d="m 0,0 -62.857,-62.857 v -250 L 0,-375.714 h 500 l -250,-250 H 0 l -62.857,-61.429 V -937.142 L 0,-1000 h 500 l 437.143,437.143 v 500 L 874.286,0 Z" /></g><g
       transform="translate(62.8569,999.9999)"
       id="g80"><path
         id="path82"
         style="fill:#000000;fill-opacity:1;fill-rule:nonzero;stroke:none"
         d="m 0,0 -62.857,-62.857 v -250 L 0,-375.714 h 250 v -250 H 0 l -62.857,-61.429 V -937.142 L 0,-1000 h 874.286 l 62.857,62.858 v 249.999 l -62.857,61.429 h -250 v 250 h 250 l 62.857,62.857 v 250 L 874.286,0 Z" /></g><g
       transform="translate(687.1428,999.9999)"
       id="g84"><path
         id="path86"
         style="fill:#000000;fill-opacity:1;fill-rule:nonzero;stroke:none"
         d="m 0,0 -62.857,-62.857 v -250 h -250 v 250 L -374.286,0 h -250 l -62.857,-62.857 v -874.285 l 62.857,-62.858 h 250 l 61.429,62.858 v 249.999 h 250 V -937.142 L 0,-1000 h 250 l 62.857,62.858 V -62.857 L 250,0 Z" /></g><g
       transform="translate(187.1433,999.9999)"
       id="g88"><path
         id="path90"
         style="fill:#000000;fill-opacity:1;fill-rule:nonzero;stroke:none"
         d="M 0,0 -187.143,-187.143 V -812.857 L 0,-1000 h 625.714 l 187.143,187.143 v 250 L 687.143,-437.143 H 312.857 v -125.714 h 124.286 v -62.857 H 187.142 v 250 h 438.572 l 187.143,188.571 V -62.857 L 750,0 Z" /></g><g
       transform="translate(312.8571,999.9999)"
       id="g92"><path
         id="path94"
         style="fill:#000000;fill-opacity:1;fill-rule:nonzero;stroke:none"
         d="m 0,0 -62.857,-62.857 v -250 H -250 l -62.857,-62.857 v -250 L -250,-687.143 H -62.857 V -937.142 L 0,-1000 h 250 l 61.429,62.858 v 249.999 H 437.143 L 500,-625.714 v 250 h 124.286 l 62.857,62.857 v 250 L 624.286,0 Z" /></g><g
       transform="translate(312.8571,999.9999)"
       id="g96"><path
         id="path98"
         style="fill:#000000;fill-opacity:1;fill-rule:nonzero;stroke:none"
         d="m 0,0 -62.857,-62.857 v -250 H -250 l -62.857,-62.857 v -250 L -250,-687.143 H -62.857 V -937.142 L 0,-1000 h 624.286 l 62.857,62.858 v 249.999 l -62.857,61.429 H 437.143 L 500,-562.857 v 125.714 l -62.857,61.429 187.143,1.428 62.857,61.429 v 250 L 624.286,0 Z" /></g><g
       transform="translate(62.8569,999.9999)"
       id="g100"><path
         id="path102"
         style="fill:#000000;fill-opacity:1;fill-rule:nonzero;stroke:none"
         d="M 0,0 -62.857,-62.857 V -937.142 L 0,-1000 h 750.001 l 187.142,187.143 v 625.714 L 750.001,0 Z m 311.429,-375.714 h 250 v -250 h -250 z" /></g> <g
       transform="translate(187.1433,999.9999)"
       id="g104"><path
         id="path106"
         style="fill:#000000;fill-opacity:1;fill-rule:nonzero;stroke:none"
         d="M 0,0 -187.143,-187.143 V -812.857 L 0,-1000 h 625.714 l 187.143,187.143 v 187.143 L 750,-562.857 H 437.143 v -62.857 H 187.142 v 250 h 250.001 v -61.429 H 750 l 62.857,61.429 v 188.571 L 625.714,0 Z" /></g><g
       transform="translate(387.5137,999.9999)"
       id="g108"><path
         id="path110"
         style="fill:#000000;fill-opacity:1;fill-rule:nonzero;stroke:none"
         d="m 0,0 -324.994,-0.002 -62.516,-62.516 -0.004,-874.976 62.462,-62.506 h 180.565 l 631.97,0.006 125.003,122.017 v 313.394 l -62.507,64.582 62.503,62.502 V -125.01 L 487.494,0 Z m 50.004,-625.034 v 250.057 l 124.998,-0.05 -0.026,-62.474 -62.472,-62.498 62.498,-62.5 v -62.556 z" /></g><g
       transform="translate(187.1433,999.9999)"
       id="g112"><path
         id="path114"
         style="fill:#000000;fill-opacity:1;fill-rule:nonzero;stroke:none"
         d="m 0,0 -187.143,-187.143 v -749.999 l 62.857,-62.858 h 250 l 61.428,62.858 v 61.428 h 250.001 v -61.428 L 499.999,-1000 H 750 l 62.857,62.858 v 749.999 L 625.714,0 Z m 187.142,-375.714 h 250 v -124.285 h -250 z" /></g> --></g></svg>